<svg id="Layer_1" data-name="Layer 1" xmlns="http://www.w3.org/2000/svg" viewBox="0 0 352.07 301"><defs><style>.cls-1{fill:#f941bf;stroke:#fff;stroke-miterlimit:10;}.cls-2,.cls-5,.cls-6{font-size:72px;font-family:Arial-Black, Arial Black;font-weight:800;}.cls-2{fill:#ffff4e;}.cls-3{font-size:20px;}.cls-4{font-size:10px;}.cls-5,.cls-7{fill:#fff;}</style></defs><title>logo</title><circle class="cls-1" cx="150.5" cy="150.5" r="150"/><text class="cls-2" transform="translate(125.81 113.16)">D<tspan class="cls-3" x="56" y="0"> </tspan><tspan x="62.67" y="0">E</tspan></text><text class="cls-2" transform="translate(125.81 175.02)">SM</text><text class="cls-2" transform="translate(127.93 236.88)">O<tspan class="cls-4" x="59.98" y="0"> </tspan><tspan x="63.31" y="0">S</tspan></text><text class="cls-5" transform="translate(65.37 112.93)">C</text><text x="0.4" y="0.5"/><text class="cls-6" transform="translate(60.31 107.33)">C</text><text class="cls-6" transform="translate(119.77 169.78)">S</text><text class="cls-6" transform="translate(184.7 232.41)">S</text><path class="cls-7" d="M68.42,130.2V235.53a1.5,1.5,0,0,0,3,0V130.2a1.5,1.5,0,0,0-3,0Z" transform="translate(0.4 0.5)"/><path class="cls-7" d="M29.62,184.36h80.6a1.5,1.5,0,0,0,0-3H29.62a1.5,1.5,0,0,0,0,3Z" transform="translate(0.4 0.5)"/><path d="M36.35,151.41l50.71,50.71,14.31,14.31a1.5,1.5,0,0,0,2.12-2.12L52.78,163.6,38.47,149.29a1.5,1.5,0,0,0-2.12,2.12Z" transform="translate(0.4 0.5)"/></svg>